<svg width="11" height="7" viewBox="0 0 11 7" fill="none" xmlns="http://www.w3.org/2000/svg">
<path d="M5.92922 6.80994L10.8243 1.50758C10.9376 1.38495 11 1.22124 11 1.04668C11 0.872118 10.9376 0.708408 10.8243 0.585771L10.4639 0.195289C10.229 -0.0587999 9.84733 -0.0587999 9.61285 0.195289L5.50228 4.64781L1.38715 0.190349C1.27384 0.0677115 1.1228 -4.31746e-07 0.961732 -4.38787e-07C0.800489 -4.45835e-07 0.649442 0.0677115 0.536044 0.190349L0.17573 0.58083C0.0624218 0.703564 -3.79055e-08 0.867177 -4.55358e-08 1.04174C-5.3166e-08 1.2163 0.0624217 1.38001 0.17573 1.50264L5.07525 6.80994C5.18892 6.93287 5.34068 7.00039 5.50201 7C5.66397 7.00039 5.81564 6.93287 5.92922 6.80994Z" fill="#535353" fill-opacity="0.5"/>
</svg>
