<svg width="64" height="64" viewBox="0 0 64 64" fill="none" xmlns="http://www.w3.org/2000/svg">
<g opacity="0.5">
<path d="M59.3599 56.5401L49.3599 47.2801C53.8192 42.2442 56.1533 35.676 55.8718 28.9553C55.5903 22.2347 52.7151 15.8847 47.8502 11.2393C42.9853 6.59397 36.5094 4.01482 29.7829 4.0437C23.0564 4.07258 16.6029 6.70724 11.7781 11.3942C6.95331 16.0812 4.13274 22.4556 3.90894 29.1784C3.68514 35.9012 6.07554 42.4492 10.578 47.4466C15.0804 52.4441 21.3444 55.5021 28.0541 55.9782C34.7637 56.4544 41.3968 54.3116 46.5599 50.0001V50.1001L56.5599 59.4201C56.7472 59.6203 56.9737 59.7799 57.2253 59.8888C57.4769 59.9978 57.7483 60.0539 58.0225 60.0536C58.2967 60.0533 58.5679 59.9966 58.8192 59.887C59.0706 59.7775 59.2967 59.6174 59.4836 59.4168C59.6705 59.2161 59.8142 58.9792 59.9056 58.7207C59.9971 58.4622 60.0344 58.1877 60.0153 57.9142C59.9962 57.6407 59.9211 57.374 59.7945 57.1307C59.668 56.8875 59.4928 56.6728 59.2799 56.5001L59.3599 56.5401ZM29.9999 52.0001C25.6487 52.0001 21.3952 50.7098 17.7773 48.2924C14.1594 45.875 11.3396 42.4391 9.6745 38.4191C8.00938 34.3992 7.5737 29.9757 8.42258 25.7081C9.27145 21.4405 11.3668 17.5205 14.4435 14.4438C17.5203 11.367 21.4403 9.2717 25.7079 8.42282C29.9755 7.57395 34.3989 8.00962 38.4189 9.67475C42.4389 11.3399 45.8748 14.1597 48.2922 17.7776C50.7096 21.3954 51.9999 25.6489 51.9999 30.0001C51.9999 35.8349 49.682 41.4307 45.5562 45.5565C41.4304 49.6823 35.8346 52.0001 29.9999 52.0001V52.0001ZM44.9999 30.0001C44.9999 30.5305 44.7891 31.0392 44.4141 31.4143C44.039 31.7894 43.5303 32.0001 42.9999 32.0001H31.9999V43.0001C31.9999 43.5305 31.7891 44.0393 31.4141 44.4143C31.039 44.7894 30.5303 45.0001 29.9999 45.0001C29.4694 45.0001 28.9607 44.7894 28.5856 44.4143C28.2106 44.0393 27.9999 43.5305 27.9999 43.0001V32.0001H16.9999C16.4694 32.0001 15.9607 31.7894 15.5856 31.4143C15.2106 31.0392 14.9999 30.5305 14.9999 30.0001C14.9999 29.4697 15.2106 28.961 15.5856 28.5859C15.9607 28.2108 16.4694 28.0001 16.9999 28.0001H27.9999V17.0001C27.9999 16.4697 28.2106 15.961 28.5856 15.5859C28.9607 15.2108 29.4694 15.0001 29.9999 15.0001C30.5303 15.0001 31.039 15.2108 31.4141 15.5859C31.7891 15.961 31.9999 16.4697 31.9999 17.0001V28.0001H42.9999C43.5303 28.0001 44.039 28.2108 44.4141 28.5859C44.7891 28.961 44.9999 29.4697 44.9999 30.0001Z" fill="white"/>
</g>
</svg>
