<svg width="68" height="68" viewBox="0 0 68 68" fill="none" xmlns="http://www.w3.org/2000/svg">
<g filter="url(#filter0_d_604_7983)">
<circle cx="34" cy="30" r="30" fill="#FF0000"/>
</g>
<g filter="url(#filter1_i_604_7983)">
<path d="M34 18C27.3835 18 22 23.3835 22 30V41.25C22 41.664 22.336 42 22.75 42H34C40.6165 42 46 36.6165 46 30C46 23.3835 40.6165 18 34 18ZM34.75 33H28.75C28.336 33 28 32.664 28 32.25C28 31.836 28.336 31.5 28.75 31.5H34.75C35.164 31.5 35.5 31.836 35.5 32.25C35.5 32.664 35.164 33 34.75 33ZM39.25 28.5H28.75C28.336 28.5 28 28.164 28 27.75C28 27.336 28.336 27 28.75 27H39.25C39.664 27 40 27.336 40 27.75C40 28.164 39.664 28.5 39.25 28.5Z" fill="white"/>
</g>
<defs>
<filter id="filter0_d_604_7983" x="0" y="0" width="68" height="68" filterUnits="userSpaceOnUse" color-interpolation-filters="sRGB">
<feFlood flood-opacity="0" result="BackgroundImageFix"/>
<feColorMatrix in="SourceAlpha" type="matrix" values="0 0 0 0 0 0 0 0 0 0 0 0 0 0 0 0 0 0 127 0" result="hardAlpha"/>
<feOffset dy="4"/>
<feGaussianBlur stdDeviation="2"/>
<feComposite in2="hardAlpha" operator="out"/>
<feColorMatrix type="matrix" values="0 0 0 0 0.85098 0 0 0 0 0.027451 0 0 0 0 0.0352942 0 0 0 0.23 0"/>
<feBlend mode="normal" in2="BackgroundImageFix" result="effect1_dropShadow_604_7983"/>
<feBlend mode="normal" in="SourceGraphic" in2="effect1_dropShadow_604_7983" result="shape"/>
</filter>
<filter id="filter1_i_604_7983" x="22" y="18" width="24" height="26" filterUnits="userSpaceOnUse" color-interpolation-filters="sRGB">
<feFlood flood-opacity="0" result="BackgroundImageFix"/>
<feBlend mode="normal" in="SourceGraphic" in2="BackgroundImageFix" result="shape"/>
<feColorMatrix in="SourceAlpha" type="matrix" values="0 0 0 0 0 0 0 0 0 0 0 0 0 0 0 0 0 0 127 0" result="hardAlpha"/>
<feOffset dy="2"/>
<feGaussianBlur stdDeviation="1"/>
<feComposite in2="hardAlpha" operator="arithmetic" k2="-1" k3="1"/>
<feColorMatrix type="matrix" values="0 0 0 0 0 0 0 0 0 0 0 0 0 0 0 0 0 0 0.3 0"/>
<feBlend mode="normal" in2="shape" result="effect1_innerShadow_604_7983"/>
</filter>
</defs>
</svg>
