<svg width="10" height="9" viewBox="0 0 10 9" fill="none" xmlns="http://www.w3.org/2000/svg">
<path d="M0.15066 4.78909C0.0419103 4.91576 -0.0110064 5.077 0.00191026 5.24367C0.0148269 5.41034 0.0914936 5.56201 0.218577 5.67034L3.30316 8.31451C3.41774 8.41242 3.55983 8.46492 3.70899 8.46492C3.72733 8.46492 3.74608 8.46409 3.76483 8.46242C3.93358 8.44742 4.08566 8.36701 4.19316 8.23659L9.46899 1.81534C9.57483 1.68617 9.62441 1.52367 9.60816 1.35742C9.59149 1.19117 9.51191 1.04117 9.38274 0.934922L8.41691 0.141589C8.15066 -0.0767444 7.75649 -0.0384111 7.53733 0.227839L3.47691 5.16992L1.84524 3.77201C1.58358 3.54867 1.18858 3.57825 0.963994 3.83992L0.15066 4.78909Z" fill="#FF0000"/>
</svg>
