<svg width="28" height="28" viewBox="0 0 28 28" fill="none" xmlns="http://www.w3.org/2000/svg">
<path d="M25.1975 13.0483L14.8245 2.67529C14.3688 2.21956 13.6305 2.21956 13.1748 2.67529L2.67481 13.1753C2.34099 13.5091 2.2413 14.0104 2.42188 14.4468C2.60246 14.8826 3.028 15.1668 3.49968 15.1668H4.66634V22.1668C4.66634 24.0968 6.23633 25.6668 8.16634 25.6668H19.833C21.763 25.6668 23.333 24.0968 23.333 22.1668V15.1668H24.4997H24.5111C25.1935 15.1771 25.6897 14.6484 25.6897 14.0002C25.6897 13.6071 25.4954 13.2596 25.1975 13.0483ZM15.1663 23.3335H12.833V18.6668H15.1663V23.3335ZM20.9997 14.0002V22.1668C20.9997 22.81 20.4762 23.3335 19.833 23.3335H17.4997V17.5002C17.4997 16.8559 16.9773 16.3335 16.333 16.3335H11.6663C11.0221 16.3335 10.4997 16.8559 10.4997 17.5002V23.3335H8.16634C7.5232 23.3335 6.99968 22.81 6.99968 22.1668V14.0002C6.99968 13.5 6.68466 13.0733 6.2426 12.9076L13.9997 5.1499L21.7568 12.9076C21.3147 13.0733 20.9997 13.5 20.9997 14.0002Z" fill="#686777"/>
</svg>
