<svg width="62" height="31" viewBox="0 0 62 31" fill="none" xmlns="http://www.w3.org/2000/svg">
<path d="M62 2C62 0.89543 61.1046 0 60 0H0V31H42C53.0457 31 62 22.0457 62 11V2Z" fill="#FF0000"/>
<path d="M18.9823 13V6.46H20.1423V9.09H22.7923V6.46H23.9523V13H22.7923V10.1H20.1423V13H18.9823ZM25.6132 13V6.46H26.7732V13H25.6132ZM28.0055 13V12.3L31.1655 7.44H28.2955V6.46H32.6055V7.16L29.4355 12.02H32.6255V13H28.0055ZM33.8359 13V6.46H34.9959V12.02H37.7159V13H33.8359ZM38.8554 13V6.46H40.0154V13H38.8554Z" fill="white"/>
<path d="M7.56367 25V19.44H5.67367V18.46H10.6137V19.44H8.72367V25H7.56367ZM12.3027 25V18.46H16.2427V19.44H13.4627V21.11H15.8127V22.09H13.4627V24.02H16.3427V25H12.3027ZM20.1935 25.12C19.7535 25.12 19.3268 25.0367 18.9135 24.87C18.5068 24.7033 18.1468 24.4667 17.8335 24.16L18.5135 23.37C18.7468 23.59 19.0135 23.77 19.3135 23.91C19.6135 24.0433 19.9135 24.11 20.2135 24.11C20.5868 24.11 20.8702 24.0333 21.0635 23.88C21.2568 23.7267 21.3535 23.5233 21.3535 23.27C21.3535 23.1367 21.3268 23.0233 21.2735 22.93C21.2268 22.8367 21.1568 22.7567 21.0635 22.69C20.9768 22.6167 20.8702 22.55 20.7435 22.49C20.6235 22.43 20.4902 22.37 20.3435 22.31L19.4435 21.92C19.2835 21.8533 19.1235 21.77 18.9635 21.67C18.8102 21.57 18.6702 21.45 18.5435 21.31C18.4168 21.17 18.3135 21.0067 18.2335 20.82C18.1602 20.6333 18.1235 20.42 18.1235 20.18C18.1235 19.92 18.1768 19.68 18.2835 19.46C18.3968 19.2333 18.5502 19.0367 18.7435 18.87C18.9368 18.7033 19.1668 18.5733 19.4335 18.48C19.7068 18.3867 20.0035 18.34 20.3235 18.34C20.7035 18.34 21.0702 18.4167 21.4235 18.57C21.7768 18.7167 22.0802 18.9167 22.3335 19.17L21.7435 19.91C21.5302 19.7367 21.3102 19.6 21.0835 19.5C20.8568 19.4 20.6035 19.35 20.3235 19.35C20.0102 19.35 19.7602 19.42 19.5735 19.56C19.3868 19.6933 19.2935 19.88 19.2935 20.12C19.2935 20.2467 19.3202 20.3567 19.3735 20.45C19.4335 20.5367 19.5102 20.6167 19.6035 20.69C19.7035 20.7567 19.8168 20.82 19.9435 20.88C20.0702 20.9333 20.2002 20.9867 20.3335 21.04L21.2235 21.41C21.4168 21.49 21.5935 21.5833 21.7535 21.69C21.9135 21.7967 22.0502 21.92 22.1635 22.06C22.2835 22.2 22.3768 22.3633 22.4435 22.55C22.5102 22.73 22.5435 22.94 22.5435 23.18C22.5435 23.4467 22.4902 23.6967 22.3835 23.93C22.2768 24.1633 22.1202 24.37 21.9135 24.55C21.7135 24.7233 21.4668 24.8633 21.1735 24.97C20.8868 25.07 20.5602 25.12 20.1935 25.12ZM24.3327 25V18.46H25.4927V24.02H28.2127V25H24.3327ZM29.9523 25V18.46H31.1123V25H29.9523ZM30.5323 17.93C30.3256 17.93 30.1556 17.87 30.0223 17.75C29.8889 17.6233 29.8223 17.4633 29.8223 17.27C29.8223 17.0767 29.8889 16.92 30.0223 16.8C30.1556 16.68 30.3256 16.62 30.5323 16.62C30.7389 16.62 30.9089 16.68 31.0423 16.8C31.1756 16.92 31.2423 17.0767 31.2423 17.27C31.2423 17.4633 31.1756 17.6233 31.0423 17.75C30.9089 17.87 30.7389 17.93 30.5323 17.93ZM33.3745 25V18.46H34.6845L35.8445 21.66C35.9179 21.8667 35.9879 22.08 36.0545 22.3C36.1212 22.5133 36.1912 22.7267 36.2645 22.94H36.3045C36.3779 22.7267 36.4445 22.5133 36.5045 22.3C36.5712 22.08 36.6412 21.8667 36.7145 21.66L37.8445 18.46H39.1645V25H38.0945V22.01C38.0945 21.8567 38.0979 21.69 38.1045 21.51C38.1179 21.33 38.1312 21.15 38.1445 20.97C38.1579 20.7833 38.1745 20.6033 38.1945 20.43C38.2145 20.25 38.2312 20.0833 38.2445 19.93H38.2045L37.6745 21.45L36.6045 24.39H35.9145L34.8345 21.45L34.3145 19.93H34.2745C34.2879 20.0833 34.3012 20.25 34.3145 20.43C34.3345 20.6033 34.3512 20.7833 34.3645 20.97C34.3845 21.15 34.3979 21.33 34.4045 21.51C34.4179 21.69 34.4245 21.8567 34.4245 22.01V25H33.3745ZM42.7657 21.52L42.5357 22.32H44.2057L43.9757 21.52C43.869 21.1733 43.7657 20.8167 43.6657 20.45C43.5724 20.0833 43.479 19.72 43.3857 19.36H43.3457C43.2524 19.7267 43.159 20.0933 43.0657 20.46C42.9724 20.82 42.8724 21.1733 42.7657 21.52ZM40.5757 25L42.7057 18.46H44.0657L46.1957 25H44.9757L44.4657 23.23H42.2657L41.7557 25H40.5757ZM48.2773 25V19.44H46.3873V18.46H51.3273V19.44H49.4373V25H48.2773Z" fill="white"/>
</svg>
