<svg width="8" height="8" viewBox="0 0 8 8" fill="none" xmlns="http://www.w3.org/2000/svg">
<path fill-rule="evenodd" clip-rule="evenodd" d="M4.0002 4.76695L7.07439 7.84113C7.28541 8.05216 7.63059 8.0523 7.84145 7.84145C8.0523 7.63059 8.05216 7.28541 7.84113 7.07439L4.76695 4.0002L7.84154 0.925615C8.05257 0.714585 8.05271 0.369408 7.84185 0.158553C7.631 -0.0523008 7.28582 -0.0521572 7.07479 0.158873L4.0002 3.23346L0.925109 0.158366C0.714079 -0.0526636 0.368901 -0.0528072 0.158047 0.158047C-0.0528072 0.368901 -0.0526636 0.714079 0.158366 0.925109L3.23346 4.0002L0.158774 7.07489C-0.0522557 7.28592 -0.0523993 7.6311 0.158455 7.84195C0.369309 8.05281 0.714487 8.05266 0.925516 7.84163L4.0002 4.76695Z" fill="#FEFEFE"/>
</svg>
