<svg width="28" height="28" viewBox="0 0 28 28" fill="none" xmlns="http://www.w3.org/2000/svg">
<g clip-path="url(#clip0_576_5816)">
<path fill-rule="evenodd" clip-rule="evenodd" d="M26.4103 19.2309C26.4103 17.7006 25.9498 16.1756 25.0786 14.8206C24.332 13.6596 23.282 12.6214 22.0226 11.7925C22.5866 10.7543 22.903 9.59055 22.903 8.36244C22.903 7.65605 22.7977 6.97117 22.6015 6.31902C23.8122 5.83291 24.6613 4.64674 24.6613 3.27716C24.6613 1.47013 23.1912 0 21.3842 0C20.216 0 19.1651 0.611627 18.5811 1.57894C17.2419 0.861565 15.6743 0.448315 14 0.448315C12.2797 0.448315 10.6722 0.884724 9.3092 1.63885C8.72947 0.641012 7.6485 5.46193e-05 6.47314 5.46193e-05C4.66611 5.46193e-05 3.19598 1.47019 3.19598 3.27721C3.19598 4.13567 3.52725 4.94791 4.12882 5.56434C4.48609 5.93046 4.91502 6.20219 5.38381 6.36768C5.19691 7.0052 5.09717 7.67369 5.09717 8.36249C5.09717 9.59061 5.41353 10.7543 5.97758 11.7926C4.71817 12.6214 3.66816 13.6596 2.92157 14.8207C2.05034 16.1756 1.58984 17.7006 1.58984 19.231C1.58984 20.5007 1.89631 21.7376 2.49964 22.9085C2.41978 23.2273 2.3768 23.5605 2.3768 23.9036C2.3768 26.1624 4.21447 28 6.47325 28C8.20534 28 9.68875 26.9189 10.2868 25.3965C11.4461 25.8996 12.7139 26.1627 14.0001 26.1627C15.2958 26.1627 16.567 25.8961 17.731 25.3876C18.3268 26.9147 19.8126 28 21.5481 28C23.8069 28 25.6445 26.1623 25.6445 23.9035C25.6445 23.5504 25.5996 23.2075 25.5151 22.8804C26.109 21.7186 26.4103 20.492 26.4103 19.2309ZM24.7717 19.2309C24.7717 19.8517 24.678 20.4636 24.4937 21.0612C23.9763 20.5252 23.3153 20.1289 22.5725 19.9369C22.7554 19.2697 22.8484 18.583 22.8484 17.8867C22.8484 16.2711 22.3354 14.6871 21.3897 13.3432C23.5215 14.8477 24.7717 17.0016 24.7717 19.2309ZM21.3842 1.63863C22.2877 1.63863 23.0228 2.3737 23.0228 3.27721C23.0228 3.97612 22.5808 4.57978 21.9558 4.81295C21.4546 3.92888 20.7725 3.13925 19.9527 2.48278C20.2378 1.96793 20.7792 1.63863 21.3842 1.63863ZM21.2644 8.36249C21.2644 10.6086 19.8911 12.5825 17.832 13.6915C18.0713 13.1635 18.2058 12.5782 18.2058 11.9617C18.2058 9.64266 16.3191 7.756 14.0001 7.756C11.681 7.756 9.79438 9.64266 9.79438 11.9617C9.79438 12.5782 9.9288 13.1635 10.1681 13.6915C8.10905 12.5825 6.7357 10.6086 6.7357 8.36249C6.7357 4.90214 9.99451 2.08695 14.0001 2.08695C18.0056 2.08695 21.2644 4.90214 21.2644 8.36249ZM12.865 9.65997C12.9417 10.2181 13.4214 10.6508 14.0001 10.6508C14.5788 10.6508 15.0584 10.2181 15.1352 9.65992C15.9828 10.0796 16.5672 10.9535 16.5672 11.9616C16.5672 13.3771 15.4156 14.5287 14.0001 14.5287C12.5846 14.5287 11.433 13.3771 11.433 11.9616C11.433 10.9535 12.0173 10.0797 12.865 9.65997ZM4.83456 3.27721C4.83456 2.3737 5.56963 1.63863 6.47314 1.63863C7.10083 1.63863 7.67449 2.00529 7.94699 2.56476C7.16014 3.21435 6.50537 3.98852 6.02264 4.85178C5.33968 4.65335 4.83456 4.01665 4.83456 3.27721ZM3.22832 19.2309C3.22832 17.0014 4.47872 14.8474 6.61067 13.3428C5.66456 14.6869 5.15168 16.2689 5.15168 17.8867C5.15168 18.5855 5.24481 19.2739 5.42871 19.9426C4.68632 20.1385 4.02647 20.5384 3.51141 21.078C3.32352 20.4748 3.22832 19.857 3.22832 19.2309ZM6.47314 26.3615C5.11787 26.3615 4.01527 25.2589 4.01527 23.9036C4.01527 22.5483 5.11787 21.4457 6.47314 21.4457C7.82841 21.4457 8.93101 22.5483 8.93101 23.9036C8.93101 25.2589 7.82841 26.3615 6.47314 26.3615ZM10.5649 23.7177C10.477 21.7614 9.01098 20.1582 7.1165 19.8581C6.90016 19.2218 6.79032 18.5603 6.79032 17.8866C6.79032 16.5777 7.21815 15.2945 8.00582 14.2088C9.58896 15.4927 11.6934 16.2766 14.0001 16.2766C16.3068 16.2766 18.4112 15.4927 19.9944 14.2089C20.7817 15.2944 21.2098 16.5793 21.2098 17.8867C21.2098 18.5612 21.0996 19.2245 20.8823 19.8621C19.0023 20.1708 17.549 21.7632 17.4567 23.7069C16.3991 24.2423 15.2134 24.5241 14.0001 24.5241C12.7975 24.5241 11.6165 24.2456 10.5649 23.7177ZM21.5481 26.3615C20.1928 26.3615 19.0902 25.2589 19.0902 23.9036C19.0902 22.5483 20.1928 21.4457 21.5481 21.4457C22.9034 21.4457 24.006 22.5483 24.006 23.9036C24.006 25.2589 22.9034 26.3615 21.5481 26.3615Z" fill="#686777"/>
<path fill-rule="evenodd" clip-rule="evenodd" d="M11.2246 7.91983C11.6758 7.91983 12.0439 7.55181 12.0439 7.10054C12.0439 6.64928 11.6758 6.28125 11.2246 6.28125C10.7733 6.28125 10.4053 6.64928 10.4053 7.10054C10.4053 7.55181 10.7734 7.91983 11.2246 7.91983Z" fill="#686777"/>
<path fill-rule="evenodd" clip-rule="evenodd" d="M16.4687 7.91983C16.92 7.91983 17.288 7.55181 17.288 7.10054C17.288 6.64928 16.92 6.28125 16.4687 6.28125C16.0175 6.28125 15.6494 6.64928 15.6494 7.10054C15.6494 7.55181 16.0174 7.91983 16.4687 7.91983Z" fill="#686777"/>
</g>
<defs>
<clipPath id="clip0_576_5816">
<rect width="28" height="28" fill="white"/>
</clipPath>
</defs>
</svg>
