<svg version="1.2" xmlns="http://www.w3.org/2000/svg" viewBox="0 0 24 16" width="24" height="16">
	<title>Group 1094-svg</title>
	<style>
		.s0 { fill: #0bc15c } 
		.s1 { fill: #a5a5a5 } 
		.s2 { fill: #1a1a1a } 
		.s3 { fill: #ffffff } 
	</style>
	<path id="Layer" class="s0" d="m1.1 8.6c0-3.3 2.7-6 6-6h10c3.3 0 6 2.7 6 6 0 3.3-2.7 6-6 6h-10c-3.3 0-6-2.7-6-6z"/>
	<path id="Layer" fill-rule="evenodd" class="s1" d="m-66.6 12.8q-0.8 0-1.5-0.3-0.8-0.3-1.3-0.9l0.8-0.9q0.4 0.4 1 0.6 0.5 0.3 1 0.3 0.7 0 1.1-0.3 0.3-0.3 0.3-0.7 0-0.3-0.1-0.5-0.1-0.1-0.2-0.2-0.2-0.2-0.4-0.3-0.2-0.1-0.5-0.2l-1.1-0.5q-0.3-0.1-0.6-0.3-0.2-0.1-0.5-0.4-0.2-0.2-0.3-0.6-0.2-0.3-0.2-0.8 0-0.4 0.2-0.8 0.2-0.4 0.6-0.7 0.3-0.3 0.8-0.5 0.5-0.2 1.1-0.2 0.6 0 1.3 0.3 0.6 0.3 1.1 0.7l-0.7 0.9q-0.4-0.3-0.8-0.5-0.4-0.1-0.9-0.1-0.6 0-0.9 0.2-0.4 0.2-0.4 0.7 0 0.2 0.1 0.4 0.1 0.1 0.3 0.3 0.2 0.1 0.4 0.2 0.2 0.1 0.5 0.2l1 0.4q0.4 0.2 0.7 0.4 0.3 0.2 0.5 0.4 0.2 0.3 0.3 0.6 0.1 0.3 0.1 0.7 0 0.5-0.2 0.9-0.2 0.5-0.5 0.8-0.4 0.3-0.9 0.5-0.5 0.2-1.2 0.2zm5.6 0q-0.8 0-1.3-0.5-0.5-0.5-0.5-1.3 0-0.4 0.2-0.8 0.2-0.4 0.6-0.6 0.5-0.3 1.1-0.5 0.7-0.1 1.6-0.2 0-0.3-0.1-0.5 0-0.2-0.2-0.3-0.1-0.2-0.3-0.3-0.2-0.1-0.5-0.1-0.4 0-0.8 0.2-0.4 0.1-0.8 0.4l-0.5-0.9q0.4-0.3 1.1-0.6 0.6-0.2 1.3-0.2 1.1 0 1.6 0.7 0.6 0.6 0.6 1.8v3.5h-1.2l-0.1-0.6q-0.4 0.3-0.9 0.5-0.4 0.3-0.9 0.3zm0.4-1.1q0.4 0 0.7-0.2 0.3-0.1 0.6-0.5v-1.3q-0.6 0.1-1 0.2-0.4 0.1-0.7 0.3-0.2 0.1-0.3 0.3-0.1 0.2-0.1 0.4 0 0.4 0.2 0.6 0.2 0.2 0.6 0.2zm6.2 1.1q-0.5 0-0.9-0.2-0.3-0.1-0.5-0.4-0.3-0.3-0.4-0.7-0.1-0.4-0.1-0.9v-2.8h-0.8v-1l0.9-0.1 0.2-1.6h1.1v1.6h1.5v1.1h-1.5v2.8q0 1.1 0.9 1.1 0.1 0 0.3-0.1 0.1 0 0.3-0.1l0.2 1.1q-0.2 0-0.5 0.1-0.3 0.1-0.7 0.1zm2.3-0.2v-5.9h1.4v5.9zm5.6 0.2q-0.6 0-1.2-0.2-0.5-0.2-0.9-0.6-0.4-0.4-0.6-1-0.2-0.6-0.2-1.3 0-0.7 0.2-1.3 0.3-0.6 0.7-1 0.4-0.4 0.9-0.6 0.6-0.2 1.2-0.2 0.5 0 0.9 0.2 0.5 0.2 0.8 0.5l-0.7 0.9q-0.2-0.2-0.5-0.4-0.2-0.1-0.5-0.1-0.7 0-1.1 0.6-0.5 0.5-0.5 1.4 0 0.9 0.5 1.4 0.4 0.5 1.1 0.5 0.3 0 0.6-0.1 0.4-0.2 0.6-0.4l0.6 1q-0.4 0.3-1 0.5-0.4 0.2-0.9 0.2zm3-0.2v-5.9h1.4v5.9zm3.9-3.9q-0.3 0-0.6-0.3-0.3-0.3-0.3-0.7 0-0.4 0.3-0.6 0.3-0.3 0.6-0.3 0.4 0 0.7 0.3 0.2 0.2 0.2 0.6 0 0.4-0.2 0.7-0.3 0.3-0.7 0.3zm0 4.1q-0.3 0-0.6-0.3-0.3-0.3-0.3-0.7 0-0.4 0.3-0.6 0.3-0.3 0.6-0.3 0.4 0 0.7 0.3 0.2 0.2 0.2 0.6 0 0.4-0.2 0.7-0.3 0.3-0.7 0.3z"/>
	<path id="Layer" fill-rule="evenodd" class="s2" d="m-34.5 12.6v-7.8h1.4v3.5h0.1l2.7-3.5h1.6l-2.4 3 2.8 4.8h-1.5l-2.2-3.7-1.1 1.4v2.3zm9.3 0.2q-0.5 0-1-0.2-0.5-0.2-0.9-0.6-0.4-0.4-0.6-1-0.3-0.6-0.3-1.3 0-0.7 0.3-1.3 0.2-0.6 0.6-1 0.4-0.4 0.9-0.6 0.5-0.2 1-0.2 0.6 0 1.1 0.2 0.5 0.2 0.9 0.6 0.4 0.4 0.6 1 0.2 0.6 0.2 1.3 0 0.7-0.2 1.3-0.2 0.6-0.6 1-0.4 0.4-0.9 0.6-0.5 0.2-1.1 0.2zm0-1.2q0.7 0 1-0.5 0.4-0.5 0.4-1.4 0-0.9-0.4-1.4-0.3-0.6-1-0.6-0.6 0-1 0.6-0.4 0.5-0.4 1.4 0 0.9 0.4 1.4 0.4 0.5 1 0.5zm6 1.2q-0.5 0-0.9-0.2-0.3-0.1-0.5-0.4-0.3-0.3-0.4-0.7-0.1-0.4-0.1-0.9v-2.8h-0.8v-1l0.9-0.1 0.2-1.6h1.1v1.6h1.5v1.1h-1.5v2.8q0 1.1 0.9 1.1 0.1 0 0.3-0.1 0.1 0 0.3-0.1l0.2 1.1q-0.2 0-0.5 0.1-0.3 0.1-0.7 0.1zm4.5 0q-0.6 0-1.1-0.2-0.5-0.2-0.9-0.6-0.3-0.4-0.6-1-0.2-0.6-0.2-1.3 0-0.7 0.2-1.3 0.3-0.6 0.6-1 0.4-0.4 0.9-0.6 0.5-0.2 1.1-0.2 0.5 0 1 0.2 0.6 0.2 0.9 0.6 0.4 0.4 0.7 1 0.2 0.6 0.2 1.3 0 0.7-0.2 1.3-0.3 0.6-0.7 1-0.3 0.4-0.9 0.6-0.5 0.2-1 0.2zm0-1.2q0.6 0 1-0.5 0.4-0.5 0.4-1.4 0-0.9-0.4-1.4-0.4-0.6-1-0.6-0.7 0-1 0.6-0.4 0.5-0.4 1.4 0 0.9 0.4 1.4 0.3 0.5 1 0.5zm4.2 1v-5.9h1.1l0.1 0.8q0.4-0.4 0.9-0.6 0.5-0.3 1.1-0.3 0.9 0 1.4 0.6 0.4 0.6 0.4 1.7v3.7h-1.4v-3.5q0-0.7-0.2-1-0.2-0.3-0.7-0.3-0.4 0-0.7 0.2-0.3 0.2-0.7 0.5v4.1z"/>
	<path id="Layer" fill-rule="evenodd" class="s3" d="m7.5 12.8q-0.7 0-1.2-0.3-0.5-0.2-0.8-0.6l0.7-0.8q0.2 0.2 0.6 0.4 0.3 0.1 0.7 0.1 0.3 0 0.6-0.1 0.3-0.1 0.6-0.5 0.2-0.3 0.4-0.8 0.1-0.6 0.2-1.4-0.4 0.4-0.8 0.7-0.5 0.2-0.9 0.2-0.5 0-0.9-0.1-0.4-0.2-0.7-0.5-0.3-0.3-0.5-0.7-0.1-0.4-0.1-1 0-0.6 0.2-1.1 0.1-0.4 0.5-0.8 0.3-0.3 0.7-0.5 0.5-0.1 1-0.1 0.5 0 1 0.2 0.5 0.2 0.9 0.7 0.4 0.4 0.6 1.1 0.2 0.7 0.2 1.7 0 1.1-0.2 1.9-0.3 0.8-0.7 1.3-0.4 0.5-0.9 0.7-0.6 0.3-1.2 0.3zm0.3-4.1q0.4 0 0.7-0.2 0.4-0.2 0.7-0.7-0.1-1-0.5-1.4-0.4-0.5-0.9-0.5-0.5 0-0.8 0.4-0.4 0.4-0.4 1.1 0 0.6 0.3 1 0.4 0.3 0.9 0.3zm4.9 4.1q-0.4 0-0.6-0.3-0.3-0.3-0.3-0.7 0-0.4 0.3-0.6 0.2-0.3 0.6-0.3 0.4 0 0.7 0.3 0.2 0.2 0.2 0.6 0 0.4-0.2 0.7-0.3 0.3-0.7 0.3zm4.6 0q-1 0-1.6-0.3-0.6-0.4-1-0.8l0.6-0.9q0.3 0.4 0.8 0.6 0.4 0.2 1 0.2 0.6 0 1-0.3 0.5-0.4 0.5-1.1 0-0.7-0.4-1.1-0.4-0.3-1-0.3-0.4 0-0.7 0.1-0.2 0.1-0.6 0.3l-0.6-0.4 0.2-3.8h4.1v1.2h-2.9l-0.2 1.8q0.3-0.1 0.5-0.2 0.3 0 0.6 0 0.4 0 0.9 0.1 0.4 0.1 0.7 0.4 0.4 0.3 0.6 0.8 0.2 0.4 0.2 1 0 0.7-0.3 1.2-0.2 0.5-0.6 0.8-0.3 0.3-0.8 0.5-0.5 0.2-1 0.2z"/>
</svg>