<svg width="17" height="17" viewBox="0 0 17 17" fill="none" xmlns="http://www.w3.org/2000/svg">
<g opacity="0.3" clip-path="url(#clip0_604_5006)">
<path d="M9.40261 1.37082L11.4949 5.67851L16.1718 6.41697C16.6641 6.54005 16.9103 7.15543 16.5411 7.52466L13.0949 10.8477L13.9565 15.5247C14.0795 16.017 13.4641 16.5093 12.9718 16.2631L8.78722 14.0477L4.60261 16.2631C4.1103 16.5093 3.61799 16.14 3.61799 15.5247L4.47953 10.8477L1.03338 7.40159C0.541071 7.03236 0.787225 6.41697 1.40261 6.29389L6.07953 5.55543L8.17184 1.37082C8.41799 0.87851 9.15646 0.87851 9.40261 1.37082Z" fill="url(#paint0_linear_604_5006)"/>
<path d="M11.4948 5.67851L9.40249 1.37082C9.27942 1.12466 9.03326 1.00159 8.78711 1.00159V9.12466L11.4948 5.67851Z" fill="url(#paint1_linear_604_5006)"/>
<path d="M13.2179 10.8478L16.664 7.52472C16.7871 7.27856 16.7871 7.03241 16.7871 6.78625L8.78711 9.12472L13.2179 10.8478Z" fill="url(#paint2_linear_604_5006)"/>
<path d="M13.7102 16.14L8.78711 9.12463V13.9246L12.9717 16.14C13.2179 16.2631 13.464 16.2631 13.7102 16.14Z" fill="url(#paint3_linear_604_5006)"/>
<path d="M8.78742 9.12463L4.35666 10.8477L3.49512 15.5246C3.49512 15.7708 3.61819 16.0169 3.74127 16.14L8.78742 9.12463Z" fill="url(#paint4_linear_604_5006)"/>
<path d="M0.787109 6.78616L8.78711 9.12462L6.07942 5.67847L1.40249 6.29385C1.03326 6.41693 0.910186 6.54001 0.787109 6.78616Z" fill="url(#paint5_linear_604_5006)"/>
<path d="M4.35634 10.8478L1.03326 7.40164C0.787109 7.27856 0.787109 7.03241 0.787109 6.78625L8.78711 9.12472L4.35634 10.8478Z" fill="url(#paint6_linear_604_5006)"/>
</g>
<defs>
<linearGradient id="paint0_linear_604_5006" x1="8.78722" y1="2.77389" x2="8.78722" y2="20.428" gradientUnits="userSpaceOnUse">
<stop stop-color="#B2B2B2"/>
<stop offset="0.427" stop-color="#606060"/>
<stop offset="1" stop-color="#616161"/>
</linearGradient>
<linearGradient id="paint1_linear_604_5006" x1="12.9341" y1="5.05094" x2="7.59732" y2="5.05094" gradientUnits="userSpaceOnUse">
<stop stop-color="#616161" stop-opacity="0"/>
<stop offset="0.203" stop-color="#575757" stop-opacity="0.203"/>
<stop offset="0.499" stop-color="#555555" stop-opacity="0.499"/>
<stop offset="0.852" stop-color="#434343" stop-opacity="0.852"/>
<stop offset="1" stop-color="#303030"/>
</linearGradient>
<linearGradient id="paint2_linear_604_5006" x1="13.8453" y1="13.2274" x2="12.432" y2="6.26712" gradientUnits="userSpaceOnUse">
<stop stop-color="#616161" stop-opacity="0"/>
<stop offset="0.203" stop-color="#575757" stop-opacity="0.203"/>
<stop offset="0.499" stop-color="#555555" stop-opacity="0.499"/>
<stop offset="0.852" stop-color="#434343" stop-opacity="0.852"/>
<stop offset="1" stop-color="#303030"/>
</linearGradient>
<linearGradient id="paint3_linear_604_5006" x1="6.99252" y1="16.8848" x2="12.528" y2="11.3492" gradientUnits="userSpaceOnUse">
<stop stop-color="#616161" stop-opacity="0"/>
<stop offset="0.203" stop-color="#575757" stop-opacity="0.203"/>
<stop offset="0.499" stop-color="#555555" stop-opacity="0.499"/>
<stop offset="0.852" stop-color="#434343" stop-opacity="0.852"/>
<stop offset="1" stop-color="#303030"/>
</linearGradient>
<linearGradient id="paint4_linear_604_5006" x1="3.04515" y1="9.88488" x2="7.12527" y2="13.2983" gradientUnits="userSpaceOnUse">
<stop stop-color="#616161" stop-opacity="0"/>
<stop offset="0.203" stop-color="#575757" stop-opacity="0.203"/>
<stop offset="0.499" stop-color="#555555" stop-opacity="0.499"/>
<stop offset="0.852" stop-color="#434343" stop-opacity="0.852"/>
<stop offset="1" stop-color="#303030"/>
</linearGradient>
<linearGradient id="paint5_linear_604_5006" x1="6.10354" y1="4.25422" x2="4.45025" y2="8.94764" gradientUnits="userSpaceOnUse">
<stop stop-color="#616161" stop-opacity="0"/>
<stop offset="0.203" stop-color="#575757" stop-opacity="0.203"/>
<stop offset="0.499" stop-color="#555555" stop-opacity="0.499"/>
<stop offset="0.852" stop-color="#434343" stop-opacity="0.852"/>
<stop offset="1" stop-color="#303030"/>
</linearGradient>
<linearGradient id="paint6_linear_604_5006" x1="12.3274" y1="4.74465" x2="0.180462" y2="9.91807" gradientUnits="userSpaceOnUse">
<stop stop-color="#616161" stop-opacity="0"/>
<stop offset="0.203" stop-color="#575757" stop-opacity="0.203"/>
<stop offset="0.499" stop-color="#555555" stop-opacity="0.499"/>
<stop offset="0.852" stop-color="#434343" stop-opacity="0.852"/>
<stop offset="1" stop-color="#303030"/>
</linearGradient>
<clipPath id="clip0_604_5006">
<rect width="16" height="16" fill="white" transform="translate(0.787109 0.632324)"/>
</clipPath>
</defs>
</svg>
