<svg width="24" height="24" viewBox="0 0 24 24" fill="none" xmlns="http://www.w3.org/2000/svg">
<g clip-path="url(#clip0_576_5775)">
<path d="M23.2377 1.25977H15.0957C14.6776 1.25977 14.3375 1.5965 14.3334 2.01456C14.3212 3.25831 13.2995 4.27018 12.0558 4.27018C10.8121 4.27018 9.79033 3.25831 9.77818 2.01461C9.77413 1.59655 9.43402 1.25977 9.01595 1.25977H0.762275C0.341309 1.25977 0 1.60107 0 2.02204V7.76621C0 8.09876 0.215581 8.39295 0.532688 8.49309L3.13167 9.31401C3.99961 9.58815 4.58275 10.3839 4.58275 11.2941V21.9782C4.58275 22.3991 4.92406 22.7404 5.34503 22.7404H18.655C19.076 22.7404 19.4173 22.3991 19.4173 21.9782V11.2941C19.4173 10.3839 20.0004 9.58815 20.8684 9.31401L23.4674 8.49309C23.7845 8.39295 24.0001 8.09876 24.0001 7.76621V2.02204C24 1.60107 23.6587 1.25977 23.2377 1.25977ZM22.4755 7.20761L20.4092 7.86031C18.904 8.33573 17.8927 9.71569 17.8927 11.2942V21.2159H6.10726V11.2941C6.10726 9.71564 5.09595 8.33568 3.59084 7.86026L1.52455 7.20761V2.78432H8.33581C8.4876 3.50371 8.84563 4.16403 9.37942 4.69315C11.5434 6.83795 15.1666 5.67163 15.7758 2.78432H22.4755V7.20761Z" fill="#FF0000"/>
</g>
<defs>
<clipPath id="clip0_576_5775">
<rect width="24" height="24" fill="white"/>
</clipPath>
</defs>
</svg>
