<svg width="15" height="9" viewBox="0 0 15 9" fill="none" xmlns="http://www.w3.org/2000/svg">
<path d="M7.09532 0.849535L0.865258 6.90937C0.721048 7.04953 0.641602 7.23663 0.641602 7.43612C0.641602 7.63562 0.721048 7.82271 0.865258 7.96287L1.32395 8.40914C1.62285 8.69952 2.10863 8.69952 2.40707 8.40914L7.6387 3.32054L12.8761 8.41478C13.0203 8.55494 13.2126 8.63232 13.4176 8.63232C13.6228 8.63232 13.815 8.55494 13.9594 8.41478L14.4179 7.96852C14.5622 7.82825 14.6416 7.64126 14.6416 7.44177C14.6416 7.24227 14.5622 7.05517 14.4179 6.91502L8.18219 0.849535C8.03753 0.709046 7.84437 0.631882 7.63904 0.632325C7.43291 0.631882 7.23987 0.709046 7.09532 0.849535Z" fill="black"/>
</svg>
