<svg width="16" height="16" viewBox="0 0 16 16" fill="none" xmlns="http://www.w3.org/2000/svg">
<path fill-rule="evenodd" clip-rule="evenodd" d="M8.00008 9.53356L14.1488 15.6823C14.5708 16.1043 15.2612 16.1046 15.6829 15.6829C16.1046 15.2612 16.1043 14.5708 15.6823 14.1488L9.53356 8.00008L15.6824 1.85123C16.1045 1.42917 16.1048 0.738814 15.683 0.317106C15.2613 -0.104603 14.571 -0.104315 14.1489 0.317744L8.00008 6.46659L1.85022 0.316732C1.42816 -0.105327 0.737802 -0.105615 0.316094 0.316094C-0.105614 0.737802 -0.105327 1.42816 0.316732 1.85022L6.46659 8.00008L0.316885 14.1498C-0.105175 14.5718 -0.105462 15.2622 0.316247 15.6839C0.737955 16.1056 1.42831 16.1053 1.85037 15.6833L8.00008 9.53356Z" fill="#3E3E3E"/>
</svg>
