<svg width="9" height="9" viewBox="0 0 9 9" fill="none" xmlns="http://www.w3.org/2000/svg">
<path fill-rule="evenodd" clip-rule="evenodd" d="M4.5762 4.01093L7.9051 0.682032C8.06068 0.526451 8.06078 0.271971 7.90533 0.11652C7.74988 -0.0389316 7.4954 -0.0388263 7.33982 0.116754L4.01092 3.44565L0.682032 0.116761C0.526451 -0.0388194 0.271971 -0.0389253 0.116519 0.116526C-0.0389319 0.271977 -0.038826 0.526458 0.116755 0.682038L3.44564 4.01093L0.116811 7.33976C-0.0387697 7.49534 -0.0388756 7.74982 0.116576 7.90527C0.272027 8.06073 0.526507 8.06062 0.682088 7.90504L4.01092 4.57621L7.33976 7.90505C7.49534 8.06063 7.74982 8.06073 7.90527 7.90528C8.06073 7.74983 8.06062 7.49535 7.90504 7.33977L4.5762 4.01093Z" fill="#BBBBBB"/>
</svg>
