<svg width="8" height="6" viewBox="0 0 8 6" fill="none" xmlns="http://www.w3.org/2000/svg">
<path d="M4.31216 5.18853L7.8722 1.14863C7.9546 1.0552 8 0.930466 8 0.797468C8 0.664471 7.9546 0.53974 7.8722 0.446302L7.61008 0.148792C7.43929 -0.0447999 7.1617 -0.0447999 6.99116 0.148792L4.00166 3.54119L1.00884 0.145028C0.926432 0.0515897 0.816579 -3.13997e-07 0.699441 -3.19118e-07C0.582174 -3.24243e-07 0.472322 0.0515897 0.389851 0.145027L0.127804 0.442537C0.0453982 0.536049 4.47957e-07 0.660707 4.42143e-07 0.793704C4.3633e-07 0.926702 0.0453982 1.05143 0.127804 1.14487L3.69109 5.18853C3.77376 5.28219 3.88413 5.33363 4.00146 5.33333C4.11925 5.33363 4.22956 5.28219 4.31216 5.18853Z" fill="#FF0000"/>
</svg>
